<svg xmlns="http://www.w3.org/2000/svg" viewBox="0 0 1600 460" role="img">
  <rect width="1600" height="460" fill="none"/>
  <g transform="translate(40,38)">
    <svg x="0" y="0" width="384" height="384" viewBox="0 0 944 944">
      <circle cx="472" cy="472" r="472" fill="#6445EB"/>
      <path d="M730.744 170.126C742.68 169.167 754.376 173.726 762.816 182.124C771.256 190.522 775.838 202.16 774.873 214.037C770.05 273.185 753.894 365.445 719.048 453.627C716.878 459.026 712.417 463.105 706.75 464.785L609.207 493.938C604.505 495.378 601.37 499.577 601.37 504.496C601.37 510.615 606.314 515.534 612.463 515.534H659.004C673.472 515.534 682.756 530.891 675.281 543.248C670.458 551.286 665.273 559.085 659.968 566.763C657.557 570.242 653.94 572.762 649.84 574.082L532.042 609.114C527.339 610.554 524.204 614.753 524.204 619.672C524.204 625.791 529.148 630.71 535.297 630.71H554.588C572.192 630.71 579.909 651.585 565.199 661.183C483.21 715.172 399.171 713.133 345.276 698.736C329.963 694.656 316.339 686.858 303.799 677.26L215.541 765.082C204.93 775.639 187.568 775.639 176.958 765.082C166.347 754.524 166.347 737.247 176.958 726.69L273.415 630.71L274.018 631.31C274.862 629.75 275.947 628.31 277.273 626.991L466.33 438.75C476.94 428.192 476.94 410.916 466.33 400.358C455.72 389.8 438.357 389.8 427.747 400.358L265.819 561.364C255.088 572.042 236.882 566.643 235.676 551.526C230.492 487.7 246.889 403.837 323.211 327.893C433.052 218.596 629.705 178.285 730.623 170.126H730.744Z" fill="#ffffff"/>
    </svg>
  </g>
  <text x="468" y="215"
        font-family="system-ui, -apple-system, Segoe UI, Roboto, Helvetica, Arial, sans-serif"
        font-size="116"
        font-weight="900"
        fill="#ffffff">
    ttkbootstrap
  </text>
  <text x="472" y="305"
        font-family="system-ui, -apple-system, Segoe UI, Roboto, Helvetica, Arial, sans-serif"
        font-size="50"
        font-weight="500"
        fill="#e5e7eb"
        opacity="0.9">
    A modern application framework for Tkinter
  </text>
</svg>
