<svg xmlns="http://www.w3.org/2000/svg" viewBox="0 0 606 603">
  <g transform="translate(36.360,36.180) scale(0.88)">
    <path d="M561.744 0.126318C573.68 -0.833481 585.376 3.72556 593.816 12.1238C602.256 20.522 606.838 32.1596 605.873 44.0371C601.05 103.185 584.894 195.445 550.048 283.627C547.878 289.026 543.417 293.105 537.75 294.785L440.207 323.938C435.505 325.378 432.37 329.577 432.37 334.496C432.37 340.615 437.314 345.534 443.463 345.534H490.004C504.472 345.534 513.756 360.891 506.281 373.248C501.458 381.286 496.273 389.085 490.968 396.763C488.557 400.242 484.94 402.762 480.84 404.082L363.042 439.114C358.339 440.554 355.204 444.753 355.204 449.672C355.204 455.791 360.148 460.71 366.297 460.71H385.588C403.192 460.71 410.909 481.585 396.199 491.183C314.21 545.172 230.171 543.133 176.276 528.736C160.963 524.656 147.339 516.858 134.799 507.26L46.5407 595.082C35.9304 605.639 18.568 605.639 7.95774 595.082C-2.65258 584.524 -2.65258 567.247 7.95774 556.69L104.415 460.71L105.018 461.31C105.862 459.75 106.947 458.31 108.273 456.991L297.33 268.75C307.94 258.192 307.94 240.916 297.33 230.358C286.72 219.8 269.357 219.8 258.747 230.358L96.8191 391.364C86.0882 402.042 67.8819 396.643 66.6762 381.526C61.4916 317.7 77.8893 233.837 154.211 157.893C264.052 48.5962 460.705 8.28461 561.623 0.126318H561.744Z" fill="#6445EB"/>
  </g>
</svg>
