<svg width="181" height="29" viewBox="0 0 181 29" fill="none" xmlns="http://www.w3.org/2000/svg">
<path d="M37.344 23.26C36.0267 23.26 35.0387 22.9133 34.38 22.22C33.7387 21.5093 33.418 20.5473 33.418 19.334V12.886H31.598V10.676H33.418V7.842L36.226 6.984V10.676H39.502L39.32 12.886H36.226V19.178C36.226 19.8887 36.3907 20.3913 36.72 20.686C37.0493 20.9633 37.5867 21.102 38.332 21.102C38.8 21.102 39.294 21.0153 39.814 20.842V22.844C39.138 23.1213 38.3147 23.26 37.344 23.26ZM46.6878 23.26C45.3704 23.26 44.3824 22.9133 43.7238 22.22C43.0824 21.5093 42.7618 20.5473 42.7618 19.334V12.886H40.9418V10.676H42.7618V7.842L45.5698 6.984V10.676H48.8458L48.6638 12.886H45.5698V19.178C45.5698 19.8887 45.7344 20.3913 46.0638 20.686C46.3931 20.9633 46.9304 21.102 47.6758 21.102C48.1438 21.102 48.6378 21.0153 49.1578 20.842V22.844C48.4818 23.1213 47.6584 23.26 46.6878 23.26ZM51.3255 23V5.476H54.1595V15.616L59.3335 10.676H62.5835L57.5655 15.642L62.8695 23H59.8795L55.7975 17.15L54.1595 18.71V23H51.3255ZM72.0503 23.26C71.149 23.26 70.369 23.1387 69.7103 22.896C69.0517 22.6533 68.445 22.2807 67.8903 21.778L67.7343 23H65.2903V5.476H68.1243V11.482C69.199 10.7713 70.4903 10.416 71.9983 10.416C73.749 10.416 75.127 10.9187 76.1323 11.924C77.155 12.912 77.6663 14.5153 77.6663 16.734C77.6663 18.97 77.1637 20.6167 76.1583 21.674C75.153 22.7313 73.7837 23.26 72.0503 23.26ZM71.2963 21.128C72.579 21.128 73.4803 20.764 74.0003 20.036C74.5377 19.308 74.8063 18.2073 74.8063 16.734C74.8063 15.2087 74.5203 14.134 73.9483 13.51C73.3763 12.886 72.475 12.574 71.2443 12.574C69.9617 12.574 68.9217 12.9293 68.1243 13.64V19.828C68.939 20.6947 69.9963 21.128 71.2963 21.128ZM86.3252 23.26C84.1065 23.26 82.4772 22.7053 81.4372 21.596C80.4145 20.4867 79.9032 18.9007 79.9032 16.838C79.9032 14.7753 80.4232 13.1893 81.4632 12.08C82.5032 10.9707 84.1238 10.416 86.3252 10.416C88.5438 10.416 90.1732 10.9707 91.2132 12.08C92.2532 13.1893 92.7732 14.7753 92.7732 16.838C92.7732 18.9007 92.2532 20.4867 91.2132 21.596C90.1905 22.7053 88.5612 23.26 86.3252 23.26ZM86.3252 20.868C87.6252 20.868 88.5438 20.556 89.0812 19.932C89.6358 19.2907 89.9132 18.2593 89.9132 16.838C89.9132 15.4167 89.6358 14.394 89.0812 13.77C88.5438 13.146 87.6252 12.834 86.3252 12.834C85.0425 12.834 84.1238 13.146 83.5692 13.77C83.0318 14.394 82.7632 15.4167 82.7632 16.838C82.7632 18.2593 83.0318 19.2907 83.5692 19.932C84.1238 20.556 85.0425 20.868 86.3252 20.868ZM101.433 23.26C99.2139 23.26 97.5846 22.7053 96.5446 21.596C95.5219 20.4867 95.0106 18.9007 95.0106 16.838C95.0106 14.7753 95.5306 13.1893 96.5706 12.08C97.6106 10.9707 99.2312 10.416 101.433 10.416C103.651 10.416 105.281 10.9707 106.321 12.08C107.361 13.1893 107.881 14.7753 107.881 16.838C107.881 18.9007 107.361 20.4867 106.321 21.596C105.298 22.7053 103.669 23.26 101.433 23.26ZM101.433 20.868C102.733 20.868 103.651 20.556 104.189 19.932C104.743 19.2907 105.021 18.2593 105.021 16.838C105.021 15.4167 104.743 14.394 104.189 13.77C103.651 13.146 102.733 12.834 101.433 12.834C100.15 12.834 99.2312 13.146 98.6766 13.77C98.1392 14.394 97.8706 15.4167 97.8706 16.838C97.8706 18.2593 98.1392 19.2907 98.6766 19.932C99.2312 20.556 100.15 20.868 101.433 20.868ZM115.344 23.26C114.027 23.26 113.039 22.9133 112.38 22.22C111.739 21.5093 111.418 20.5473 111.418 19.334V12.886H109.598V10.676H111.418V7.842L114.226 6.984V10.676H117.502L117.32 12.886H114.226V19.178C114.226 19.8887 114.391 20.3913 114.72 20.686C115.049 20.9633 115.587 21.102 116.332 21.102C116.8 21.102 117.294 21.0153 117.814 20.842V22.844C117.138 23.1213 116.315 23.26 115.344 23.26ZM124.09 23.26C123.24 23.26 122.426 23.1993 121.646 23.078C120.883 22.9567 120.25 22.8093 119.748 22.636V20.244C120.337 20.4693 120.987 20.6427 121.698 20.764C122.408 20.8853 123.084 20.946 123.726 20.946C124.696 20.946 125.39 20.8593 125.806 20.686C126.222 20.5127 126.43 20.1747 126.43 19.672C126.43 19.308 126.3 19.022 126.04 18.814C125.797 18.606 125.424 18.4153 124.922 18.242C124.436 18.0687 123.812 17.8607 123.05 17.618C122.322 17.3753 121.689 17.1153 121.152 16.838C120.614 16.5433 120.198 16.1707 119.904 15.72C119.609 15.2693 119.462 14.68 119.462 13.952C119.462 12.8253 119.869 11.9587 120.684 11.352C121.498 10.728 122.807 10.416 124.61 10.416C125.32 10.416 125.996 10.468 126.638 10.572C127.279 10.676 127.825 10.806 128.276 10.962V13.328C127.79 13.1373 127.253 12.99 126.664 12.886C126.092 12.782 125.554 12.73 125.052 12.73C124.15 12.73 123.466 12.808 122.998 12.964C122.547 13.12 122.322 13.432 122.322 13.9C122.322 14.3853 122.556 14.732 123.024 14.94C123.509 15.1307 124.28 15.3993 125.338 15.746C126.308 16.0407 127.08 16.3527 127.652 16.682C128.224 17.0113 128.631 17.41 128.874 17.878C129.134 18.3287 129.264 18.918 129.264 19.646C129.264 20.8593 128.822 21.7693 127.938 22.376C127.054 22.9653 125.771 23.26 124.09 23.26ZM136.367 23.26C135.05 23.26 134.062 22.9133 133.403 22.22C132.762 21.5093 132.441 20.5473 132.441 19.334V12.886H130.621V10.676H132.441V7.842L135.249 6.984V10.676H138.525L138.343 12.886H135.249V19.178C135.249 19.8887 135.414 20.3913 135.743 20.686C136.073 20.9633 136.61 21.102 137.355 21.102C137.823 21.102 138.317 21.0153 138.837 20.842V22.844C138.161 23.1213 137.338 23.26 136.367 23.26ZM141.005 23V10.676H143.605L143.761 12.106C144.351 11.7247 145.053 11.378 145.867 11.066C146.682 10.754 147.488 10.5373 148.285 10.416V12.574C147.8 12.6607 147.271 12.7907 146.699 12.964C146.145 13.12 145.616 13.302 145.113 13.51C144.611 13.7007 144.186 13.9 143.839 14.108V23H141.005ZM153.41 23.26C152.63 23.26 151.902 23.1213 151.226 22.844C150.567 22.5667 150.038 22.1507 149.64 21.596C149.241 21.024 149.042 20.322 149.042 19.49C149.042 18.3113 149.44 17.3667 150.238 16.656C151.052 15.928 152.3 15.564 153.982 15.564H157.934V15.018C157.934 14.4287 157.838 13.9607 157.648 13.614C157.474 13.2673 157.145 13.016 156.66 12.86C156.192 12.704 155.498 12.626 154.58 12.626C153.124 12.626 151.763 12.8427 150.498 13.276V11.17C151.052 10.9447 151.728 10.7627 152.526 10.624C153.323 10.4853 154.181 10.416 155.1 10.416C156.902 10.416 158.272 10.78 159.208 11.508C160.161 12.236 160.638 13.4233 160.638 15.07V23H158.22L158.038 21.752C157.535 22.2373 156.911 22.61 156.166 22.87C155.438 23.13 154.519 23.26 153.41 23.26ZM154.164 21.232C155.013 21.232 155.75 21.0933 156.374 20.816C157.015 20.5213 157.535 20.1313 157.934 19.646V17.488H154.034C153.202 17.488 152.595 17.6527 152.214 17.982C151.85 18.294 151.668 18.7793 151.668 19.438C151.668 20.0793 151.884 20.5387 152.318 20.816C152.751 21.0933 153.366 21.232 154.164 21.232ZM163.781 28.616V10.676H166.225L166.381 11.898C166.935 11.3953 167.542 11.0227 168.201 10.78C168.859 10.5373 169.639 10.416 170.541 10.416C172.309 10.416 173.687 10.9013 174.675 11.872C175.663 12.8253 176.157 14.4113 176.157 16.63C176.157 18.8487 175.645 20.5127 174.623 21.622C173.6 22.714 172.205 23.26 170.437 23.26C168.946 23.26 167.672 22.9133 166.615 22.22V28.616H163.781ZM169.709 21.128C172.101 21.128 173.297 19.62 173.297 16.604C173.297 15.148 173.028 14.1167 172.491 13.51C171.953 12.886 171.052 12.574 169.787 12.574C168.521 12.574 167.464 13.0073 166.615 13.874V20.036C167.013 20.3653 167.455 20.634 167.941 20.842C168.443 21.0327 169.033 21.128 169.709 21.128Z" fill="white"/>
<path d="M24.2473 2.00502C24.72 1.96685 25.1832 2.1483 25.5175 2.48255C25.8517 2.8168 26.0332 3.28001 25.995 3.75272C25.804 6.10687 25.1641 9.77891 23.7841 13.2886C23.6981 13.5035 23.5215 13.6659 23.297 13.7327L19.4339 14.8931C19.2477 14.9504 19.1236 15.1175 19.1236 15.3133C19.1236 15.5568 19.3194 15.7526 19.5629 15.7526H21.4061C21.9791 15.7526 22.3468 16.3638 22.0507 16.8556C21.8597 17.1756 21.6544 17.486 21.4443 17.7916C21.3488 17.93 21.2055 18.0303 21.0432 18.0829L16.3779 19.4772C16.1916 19.5345 16.0675 19.7016 16.0675 19.8974C16.0675 20.1409 16.2633 20.3367 16.5068 20.3367H17.2708C17.968 20.3367 18.2736 21.1676 17.6911 21.5496C14.444 23.6984 11.1157 23.6172 8.98123 23.0442C8.37478 22.8818 7.83522 22.5715 7.33858 22.1895L3.84322 25.6849C3.42298 26.105 2.73538 26.105 2.31518 25.6849C1.89494 25.2646 1.89494 24.577 2.31518 24.1568L6.13526 20.3367L6.15914 20.3606C6.19256 20.2985 6.23553 20.2412 6.28805 20.1887L13.7754 12.6965C14.1956 12.2763 14.1956 11.5887 13.7754 11.1685C13.3553 10.7483 12.6676 10.7483 12.2474 11.1685L5.83442 17.5767C5.40943 18.0017 4.6884 17.7868 4.64064 17.1851C4.43534 14.6448 5.08472 11.307 8.10737 8.28431C12.4575 3.93417 20.2457 2.32976 24.2425 2.00502H24.2473Z" fill="#0D6EFD"/>
</svg>
